<svg width="37" height="39" viewBox="0 0 37 39" fill="none" xmlns="http://www.w3.org/2000/svg">
<rect x="0.662476" y="0.00317383" width="35.7718" height="38.5959" rx="4.70681" fill="#F59402"/>
<path fill-rule="evenodd" clip-rule="evenodd" d="M12 10V7.88273C12 6.84293 12.8429 6 13.8827 6H26.1173C27.1571 6 28 6.84293 28 7.88273V26.1173C28 27.1571 27.1571 28 26.1173 28H24V29.1173C24 30.1571 23.1571 31 22.1173 31H9.88273C8.84292 31 8 30.1571 8 29.1173V11.8827C8 10.8429 8.84293 10 9.88273 10H12ZM13.8827 7H26.1173C26.6048 7 27 7.39521 27 7.88273V26.1173C27 26.6048 26.6048 27 26.1173 27H24V11.8827C24 10.8429 23.1571 10 22.1173 10H13V7.88273C13 7.39521 13.3952 7 13.8827 7Z" fill="#A7440C"/>
</svg>
